# xmcd CD database file
# Copyright (C) 1993-1998 Ti Kan
# 
# Track frame offsets:
#     150
#     15904
#     31587
#     45650
#     68239
#     83027
#     104055
#     119428
#     145579
#     161502
#     181565
#     199258
#     215008
#     236213
#     251516
# 
# Disc length: 3601 seconds
# 
# Revision: 1
# Processed by: cddbd v1.4b41PL1 Copyright (c) Steve Scherf et al.
# Submitted via: DiscPlay 4.0.4
# 
DISCID=c50e0f0f
DTITLE=Jimmy LaFave - Road Novel
DYEAR=1900
DGENRE=
TTITLE0=You'll Never Know
TTITLE1=Hold On
TTITLE2=Vast Stretches of Broken Heart
TTITLE3=Into Your Life
TTITLE4=Ramblin' Sky
TTITLE5=Home Sweet Oklahoma
TTITLE6=Buckets of Rain
TTITLE7=Long Ago with Miles Between
TTITLE8=Long Time Since the Last Time
TTITLE9=Never Put the Blame
TTITLE10=The Open Space
TTITLE11=You've Got That Right
TTITLE12=The Big Wheels
TTITLE13=Heart of a Woman
TTITLE14=The Great Night
EXTD=
EXTT0=
EXTT1=
EXTT2=
EXTT3=
EXTT4=
EXTT5=
EXTT6=
EXTT7=
EXTT8=
EXTT9=
EXTT10=
EXTT11=
EXTT12=
EXTT13=
EXTT14=
PLAYORDER=
